<svg version="1.2" xmlns="http://www.w3.org/2000/svg" viewBox="0 0 1920 1080" width="1920" height="1080"><style>tspan{white-space:pre}.a{fill:#001220}.b{fill:#fa7268}.c{fill:#f46767}.d{fill:#ee5c67}.e{fill:#e75167}.f{fill:#df4667}.g{fill:#d73b67}.h{fill:#cf3068}.i{fill:#c62368}.j{font-size: 123px;fill: #ffffff;font-weight: 400;font-family: "Ubuntu-Regular", "Ubuntu"}</style><path class="a" d="m0 0h1920v1080h-1920z"/><path class="b" d="m0 720l45.7 19.5c45.6 19.5 137 58.5 228.5 60.7 91.5 2.1 183.1-32.5 274.6-43.4 91.5-10.8 182.9 2.2 274.2 13 91.3 10.9 182.7 19.5 274 28.4 91.3 8.8 182.7 17.8 274.2 19.3 91.5 1.5 183.1-4.5 274.6-14 91.5-9.5 182.9-22.5 228.5-29l45.7-6.5v313h-45.7c-45.6 0-137 0-228.5 0-91.5 0-183.1 0-274.6 0q-137.2 0-274.2 0c-91.3 0-182.7 0-274 0q-136.9 0-274.2 0c-91.5 0-183.1 0-274.6 0-91.5 0-182.9 0-228.5 0h-45.7z"/><path class="c" d="m0 774l45.7 10c45.6 10 137 30 228.5 33.7 91.5 3.6 183.1-9 274.6-18.9 91.5-9.8 182.9-16.8 274.2-16.6 91.3 0.1 182.7 7.5 274 19.3 91.3 11.8 182.7 28.2 274.2 29.2 91.5 1 183.1-13.4 274.6-21.2 91.5-7.8 182.9-9.2 228.5-9.8l45.7-0.7v282h-45.7c-45.6 0-137 0-228.5 0-91.5 0-183.1 0-274.6 0q-137.2 0-274.2 0c-91.3 0-182.7 0-274 0q-136.9 0-274.2 0c-91.5 0-183.1 0-274.6 0-91.5 0-182.9 0-228.5 0h-45.7z"/><path class="d" d="m0 846h45.7c45.6 0 137 0 228.5-1.3 91.5-1.4 183.1-4 274.6 1.8 91.5 5.8 182.9 20.2 274.2 17.3 91.3-2.8 182.7-22.8 274-20.6 91.3 2.1 182.7 26.5 274.2 35.3 91.5 8.8 183.1 2.2 274.6-11.8 91.5-14 182.9-35.4 228.5-46l45.7-10.7v271h-45.7c-45.6 0-137 0-228.5 0-91.5 0-183.1 0-274.6 0q-137.2 0-274.2 0c-91.3 0-182.7 0-274 0q-136.9 0-274.2 0c-91.5 0-183.1 0-274.6 0-91.5 0-182.9 0-228.5 0h-45.7z"/><path class="e" d="m0 880l45.7-4.7c45.6-4.6 137-14 228.5-5.3 91.5 8.7 183.1 35.3 274.6 43.5 91.5 8.2 182.9-2.2 274.2-16.5 91.3-14.3 182.7-32.7 274-28.5 91.3 4.2 182.7 30.8 274.2 38.5 91.5 7.7 183.1-3.7 274.6-14.5 91.5-10.8 182.9-21.2 228.5-26.3l45.7-5.2v220h-45.7c-45.6 0-137 0-228.5 0-91.5 0-183.1 0-274.6 0q-137.2 0-274.2 0c-91.3 0-182.7 0-274 0q-136.9 0-274.2 0c-91.5 0-183.1 0-274.6 0-91.5 0-182.9 0-228.5 0h-45.7z"/><path class="f" d="m0 903l45.7 9.5c45.6 9.5 137 28.5 228.5 35.7 91.5 7.1 183.1 2.5 274.6-4 91.5-6.5 182.9-14.9 274.2-13 91.3 1.8 182.7 13.8 274 12 91.3-1.9 182.7-17.5 274.2-27.2 91.5-9.7 183.1-13.3 274.6-8.3 91.5 5 182.9 18.6 228.5 25.5l45.7 6.8v141h-45.7c-45.6 0-137 0-228.5 0-91.5 0-183.1 0-274.6 0q-137.2 0-274.2 0c-91.3 0-182.7 0-274 0q-136.9 0-274.2 0c-91.5 0-183.1 0-274.6 0-91.5 0-182.9 0-228.5 0h-45.7z"/><path class="g" d="m0 964l45.7-3.7c45.6-3.6 137-11 228.5-12 91.5-1 183.1 4.4 274.6 2.4 91.5-2 182.9-11.4 274.2-16.9 91.3-5.5 182.7-7.1 274-3 91.3 4.2 182.7 14.2 274.2 24.5 91.5 10.4 183.1 21 274.6 20 91.5-1 182.9-13.6 228.5-20l45.7-6.3v132h-45.7c-45.6 0-137 0-228.5 0-91.5 0-183.1 0-274.6 0q-137.2 0-274.2 0c-91.3 0-182.7 0-274 0q-136.9 0-274.2 0c-91.5 0-183.1 0-274.6 0-91.5 0-182.9 0-228.5 0h-45.7z"/><path class="h" d="m0 1000l45.7-1.3c45.6-1.4 137-4 228.5-3.7 91.5 0.3 183.1 3.7 274.6-0.2 91.5-3.8 182.9-14.8 274.2-14 91.3 0.9 182.7 13.5 274 16.7 91.3 3.2 182.7-3.2 274.2-4.7 91.5-1.5 183.1 1.9 274.6 1 91.5-0.8 182.9-5.8 228.5-8.3l45.7-2.5v98h-45.7c-45.6 0-137 0-228.5 0-91.5 0-183.1 0-274.6 0q-137.2 0-274.2 0c-91.3 0-182.7 0-274 0q-136.9 0-274.2 0c-91.5 0-183.1 0-274.6 0-91.5 0-182.9 0-228.5 0h-45.7z"/><path class="i" d="m0 1046l45.7-3.5c45.6-3.5 137-10.5 228.5-9.7 91.5 0.9 183.1 9.5 274.6 6.9 91.5-2.7 182.9-16.7 274.2-16.7 91.3 0 182.7 14 274 15.2 91.3 1.1 182.7-10.5 274.2-17.2 91.5-6.7 183.1-8.3 274.6-8.5 91.5-0.2 182.9 1.2 228.5 1.8l45.7 0.7v66h-45.7c-45.6 0-137 0-228.5 0-91.5 0-183.1 0-274.6 0q-137.2 0-274.2 0c-91.3 0-182.7 0-274 0q-136.9 0-274.2 0c-91.5 0-183.1 0-274.6 0-91.5 0-182.9 0-228.5 0h-45.7z"/><text style="transform:matrix(1,0,0,1,488,443)" ><tspan x="0" y="95.4" class="j">N</tspan><tspan  y="95.4" class="j">O</tspan><tspan  y="95.4" class="j">T</tspan><tspan  y="95.4" class="j"> </tspan><tspan  y="95.4" class="j">F</tspan><tspan  y="95.4" class="j">O</tspan><tspan  y="95.4" class="j">U</tspan><tspan  y="95.4" class="j">N</tspan><tspan  y="95.4" class="j">D</tspan><tspan  y="95.4" class="j"> </tspan><tspan  y="95.4" class="j">4</tspan><tspan  y="95.4" class="j">0</tspan><tspan  y="95.4" class="j">4
</tspan></text></svg>