<svg id="visual" viewBox="0 0 1920 1080" width="1920" height="1080" xmlns="http://www.w3.org/2000/svg" xmlns:xlink="http://www.w3.org/1999/xlink" version="1.1"><rect x="0" y="0" width="1920" height="1080" fill="#001220"></rect><path d="M0 307L64 320.3C128 333.7 256 360.3 384 401.2C512 442 640 497 768 510.7C896 524.3 1024 496.7 1152 466.2C1280 435.7 1408 402.3 1536 400.5C1664 398.7 1792 428.3 1856 443.2L1920 458L1920 1081L1856 1081C1792 1081 1664 1081 1536 1081C1408 1081 1280 1081 1152 1081C1024 1081 896 1081 768 1081C640 1081 512 1081 384 1081C256 1081 128 1081 64 1081L0 1081Z" fill="#c62368"></path><path d="M0 397L64 437.7C128 478.3 256 559.7 384 572.3C512 585 640 529 768 513C896 497 1024 521 1152 524.2C1280 527.3 1408 509.7 1536 521.8C1664 534 1792 576 1856 597L1920 618L1920 1081L1856 1081C1792 1081 1664 1081 1536 1081C1408 1081 1280 1081 1152 1081C1024 1081 896 1081 768 1081C640 1081 512 1081 384 1081C256 1081 128 1081 64 1081L0 1081Z" fill="#cc2b68"></path><path d="M0 713L64 705.2C128 697.3 256 681.7 384 664.8C512 648 640 630 768 641.3C896 652.7 1024 693.3 1152 667.2C1280 641 1408 548 1536 525.8C1664 503.7 1792 552.3 1856 576.7L1920 601L1920 1081L1856 1081C1792 1081 1664 1081 1536 1081C1408 1081 1280 1081 1152 1081C1024 1081 896 1081 768 1081C640 1081 512 1081 384 1081C256 1081 128 1081 64 1081L0 1081Z" fill="#d13367"></path><path d="M0 584L64 567.3C128 550.7 256 517.3 384 533.8C512 550.3 640 616.7 768 641.8C896 667 1024 651 1152 652C1280 653 1408 671 1536 666.5C1664 662 1792 635 1856 621.5L1920 608L1920 1081L1856 1081C1792 1081 1664 1081 1536 1081C1408 1081 1280 1081 1152 1081C1024 1081 896 1081 768 1081C640 1081 512 1081 384 1081C256 1081 128 1081 64 1081L0 1081Z" fill="#d73a67"></path><path d="M0 744L64 722.3C128 700.7 256 657.3 384 637.8C512 618.3 640 622.7 768 615.2C896 607.7 1024 588.3 1152 595C1280 601.7 1408 634.3 1536 636.8C1664 639.3 1792 611.7 1856 597.8L1920 584L1920 1081L1856 1081C1792 1081 1664 1081 1536 1081C1408 1081 1280 1081 1152 1081C1024 1081 896 1081 768 1081C640 1081 512 1081 384 1081C256 1081 128 1081 64 1081L0 1081Z" fill="#dc4167"></path><path d="M0 714L64 727.2C128 740.3 256 766.7 384 769.7C512 772.7 640 752.3 768 734.7C896 717 1024 702 1152 707.7C1280 713.3 1408 739.7 1536 728.8C1664 718 1792 670 1856 646L1920 622L1920 1081L1856 1081C1792 1081 1664 1081 1536 1081C1408 1081 1280 1081 1152 1081C1024 1081 896 1081 768 1081C640 1081 512 1081 384 1081C256 1081 128 1081 64 1081L0 1081Z" fill="#e14867"></path><path d="M0 765L64 777.7C128 790.3 256 815.7 384 823C512 830.3 640 819.7 768 798.2C896 776.7 1024 744.3 1152 740.2C1280 736 1408 760 1536 771C1664 782 1792 780 1856 779L1920 778L1920 1081L1856 1081C1792 1081 1664 1081 1536 1081C1408 1081 1280 1081 1152 1081C1024 1081 896 1081 768 1081C640 1081 512 1081 384 1081C256 1081 128 1081 64 1081L0 1081Z" fill="#e54f67"></path><path d="M0 774L64 785.3C128 796.7 256 819.3 384 830.3C512 841.3 640 840.7 768 843.2C896 845.7 1024 851.3 1152 849.8C1280 848.3 1408 839.7 1536 846C1664 852.3 1792 873.7 1856 884.3L1920 895L1920 1081L1856 1081C1792 1081 1664 1081 1536 1081C1408 1081 1280 1081 1152 1081C1024 1081 896 1081 768 1081C640 1081 512 1081 384 1081C256 1081 128 1081 64 1081L0 1081Z" fill="#ea5667"></path><path d="M0 864L64 859.7C128 855.3 256 846.7 384 845.5C512 844.3 640 850.7 768 859.3C896 868 1024 879 1152 870.3C1280 861.7 1408 833.3 1536 828.2C1664 823 1792 841 1856 850L1920 859L1920 1081L1856 1081C1792 1081 1664 1081 1536 1081C1408 1081 1280 1081 1152 1081C1024 1081 896 1081 768 1081C640 1081 512 1081 384 1081C256 1081 128 1081 64 1081L0 1081Z" fill="#ee5d67"></path><path d="M0 925L64 928C128 931 256 937 384 941C512 945 640 947 768 948C896 949 1024 949 1152 932C1280 915 1408 881 1536 883.3C1664 885.7 1792 924.3 1856 943.7L1920 963L1920 1081L1856 1081C1792 1081 1664 1081 1536 1081C1408 1081 1280 1081 1152 1081C1024 1081 896 1081 768 1081C640 1081 512 1081 384 1081C256 1081 128 1081 64 1081L0 1081Z" fill="#f26467"></path><path d="M0 972L64 970.7C128 969.3 256 966.7 384 968.3C512 970 640 976 768 981C896 986 1024 990 1152 977C1280 964 1408 934 1536 924C1664 914 1792 924 1856 929L1920 934L1920 1081L1856 1081C1792 1081 1664 1081 1536 1081C1408 1081 1280 1081 1152 1081C1024 1081 896 1081 768 1081C640 1081 512 1081 384 1081C256 1081 128 1081 64 1081L0 1081Z" fill="#f66b68"></path><path d="M0 997L64 997.8C128 998.7 256 1000.3 384 1000.2C512 1000 640 998 768 1002C896 1006 1024 1016 1152 1014.5C1280 1013 1408 1000 1536 991.3C1664 982.7 1792 978.3 1856 976.2L1920 974L1920 1081L1856 1081C1792 1081 1664 1081 1536 1081C1408 1081 1280 1081 1152 1081C1024 1081 896 1081 768 1081C640 1081 512 1081 384 1081C256 1081 128 1081 64 1081L0 1081Z" fill="#fa7268"></path></svg>