<svg id="visual" viewBox="0 0 900 600" width="900" height="600" xmlns="http://www.w3.org/2000/svg" xmlns:xlink="http://www.w3.org/1999/xlink" version="1.1"><rect x="0" y="0" width="900" height="600" fill="#001220"></rect><path d="M0 414L21.5 412.8C43 411.7 86 409.3 128.8 406.8C171.7 404.3 214.3 401.7 257.2 394.7C300 387.7 343 376.3 385.8 377.8C428.7 379.3 471.3 393.7 514.2 394.5C557 395.3 600 382.7 642.8 381.3C685.7 380 728.3 390 771.2 391.2C814 392.3 857 384.7 878.5 380.8L900 377L900 601L878.5 601C857 601 814 601 771.2 601C728.3 601 685.7 601 642.8 601C600 601 557 601 514.2 601C471.3 601 428.7 601 385.8 601C343 601 300 601 257.2 601C214.3 601 171.7 601 128.8 601C86 601 43 601 21.5 601L0 601Z" fill="#c62368"></path><path d="M0 393L21.5 391.3C43 389.7 86 386.3 128.8 394.7C171.7 403 214.3 423 257.2 433C300 443 343 443 385.8 443.8C428.7 444.7 471.3 446.3 514.2 436.8C557 427.3 600 406.7 642.8 399.3C685.7 392 728.3 398 771.2 400.5C814 403 857 402 878.5 401.5L900 401L900 601L878.5 601C857 601 814 601 771.2 601C728.3 601 685.7 601 642.8 601C600 601 557 601 514.2 601C471.3 601 428.7 601 385.8 601C343 601 300 601 257.2 601C214.3 601 171.7 601 128.8 601C86 601 43 601 21.5 601L0 601Z" fill="#d03267"></path><path d="M0 428L21.5 435.8C43 443.7 86 459.3 128.8 459.5C171.7 459.7 214.3 444.3 257.2 435.5C300 426.7 343 424.3 385.8 423.8C428.7 423.3 471.3 424.7 514.2 428.7C557 432.7 600 439.3 642.8 443C685.7 446.7 728.3 447.3 771.2 453.2C814 459 857 470 878.5 475.5L900 481L900 601L878.5 601C857 601 814 601 771.2 601C728.3 601 685.7 601 642.8 601C600 601 557 601 514.2 601C471.3 601 428.7 601 385.8 601C343 601 300 601 257.2 601C214.3 601 171.7 601 128.8 601C86 601 43 601 21.5 601L0 601Z" fill="#da3f67"></path><path d="M0 477L21.5 475.5C43 474 86 471 128.8 471C171.7 471 214.3 474 257.2 479.8C300 485.7 343 494.3 385.8 495.5C428.7 496.7 471.3 490.3 514.2 486.7C557 483 600 482 642.8 479C685.7 476 728.3 471 771.2 473.8C814 476.7 857 487.3 878.5 492.7L900 498L900 601L878.5 601C857 601 814 601 771.2 601C728.3 601 685.7 601 642.8 601C600 601 557 601 514.2 601C471.3 601 428.7 601 385.8 601C343 601 300 601 257.2 601C214.3 601 171.7 601 128.8 601C86 601 43 601 21.5 601L0 601Z" fill="#e34c67"></path><path d="M0 510L21.5 509.7C43 509.3 86 508.7 128.8 506.8C171.7 505 214.3 502 257.2 505.2C300 508.3 343 517.7 385.8 518.2C428.7 518.7 471.3 510.3 514.2 504.2C557 498 600 494 642.8 493.5C685.7 493 728.3 496 771.2 499.8C814 503.7 857 508.3 878.5 510.7L900 513L900 601L878.5 601C857 601 814 601 771.2 601C728.3 601 685.7 601 642.8 601C600 601 557 601 514.2 601C471.3 601 428.7 601 385.8 601C343 601 300 601 257.2 601C214.3 601 171.7 601 128.8 601C86 601 43 601 21.5 601L0 601Z" fill="#eb5967"></path><path d="M0 518L21.5 523.2C43 528.3 86 538.7 128.8 537.7C171.7 536.7 214.3 524.3 257.2 518.2C300 512 343 512 385.8 513C428.7 514 471.3 516 514.2 522.5C557 529 600 540 642.8 545C685.7 550 728.3 549 771.2 542.7C814 536.3 857 524.7 878.5 518.8L900 513L900 601L878.5 601C857 601 814 601 771.2 601C728.3 601 685.7 601 642.8 601C600 601 557 601 514.2 601C471.3 601 428.7 601 385.8 601C343 601 300 601 257.2 601C214.3 601 171.7 601 128.8 601C86 601 43 601 21.5 601L0 601Z" fill="#f36567"></path><path d="M0 544L21.5 547.7C43 551.3 86 558.7 128.8 563.7C171.7 568.7 214.3 571.3 257.2 569.5C300 567.7 343 561.3 385.8 557.7C428.7 554 471.3 553 514.2 555.3C557 557.7 600 563.3 642.8 565.7C685.7 568 728.3 567 771.2 567.3C814 567.7 857 569.3 878.5 570.2L900 571L900 601L878.5 601C857 601 814 601 771.2 601C728.3 601 685.7 601 642.8 601C600 601 557 601 514.2 601C471.3 601 428.7 601 385.8 601C343 601 300 601 257.2 601C214.3 601 171.7 601 128.8 601C86 601 43 601 21.5 601L0 601Z" fill="#fa7268"></path></svg>